# MagicaVoxel @ ephtracy

# material
mtllib robinet.mtl
usemtl palette

# normals
vn -1 0 0
vn 1 0 0
vn 0 0 1
vn 0 0 -1
vn 0 -1 0
vn 0 1 0

# texcoords
vt 0.587891 0.5
vt 0.841797 0.5
vt 0.935547 0.5
vt 0.958984 0.5

# verts
v -3.5 1 -1.5
v -3.5 1 -2.5
v -3.5 2 -1.5
v -3.5 2 -2.5
v -1.5 0 -1.5
v -1.5 0 -2.5
v -1.5 1 -1.5
v -1.5 1 -2.5
v -0.5 0 2.5
v -0.5 0 1.5
v -0.5 1 2.5
v -0.5 1 1.5
v -0.5 2 2.5
v -0.5 2 1.5
v -0.5 2 -1.5
v -0.5 2 -2.5
v -0.5 3 2.5
v -0.5 3 1.5
v -0.5 4 2.5
v -0.5 4 1.5
v -0.5 5 2.5
v -0.5 5 1.5
v -0.5 6 2.5
v -0.5 6 1.5
v -0.5 6 -0.5
v -0.5 6 -1.5
v -0.5 6 -2.5
v -0.5 7 2.5
v -0.5 7 1.5
v -0.5 7 -0.5
v -0.5 7 -1.5
v -0.5 8 1.5
v -0.5 8 -0.5
v 0.5 0 2.5
v 0.5 0 1.5
v 0.5 1 2.5
v 0.5 1 1.5
v 0.5 2 2.5
v 0.5 2 1.5
v 0.5 2 -1.5
v 0.5 2 -2.5
v 0.5 3 2.5
v 0.5 3 1.5
v 0.5 4 2.5
v 0.5 4 1.5
v 0.5 5 2.5
v 0.5 5 1.5
v 0.5 6 2.5
v 0.5 6 1.5
v 0.5 6 -0.5
v 0.5 6 -1.5
v 0.5 6 -2.5
v 0.5 7 2.5
v 0.5 7 1.5
v 0.5 7 -0.5
v 0.5 7 -1.5
v 0.5 8 1.5
v 0.5 8 -0.5
v 1.5 0 -1.5
v 1.5 0 -2.5
v 1.5 1 -1.5
v 1.5 1 -2.5
v 3.5 1 -1.5
v 3.5 1 -2.5
v 3.5 2 -1.5
v 3.5 2 -2.5
v -0.5 0 2.5
v -0.5 1 2.5
v -0.5 2 2.5
v -0.5 3 2.5
v -0.5 4 2.5
v -0.5 5 2.5
v -0.5 6 2.5
v -0.5 7 2.5
v 0.5 0 2.5
v 0.5 1 2.5
v 0.5 2 2.5
v 0.5 3 2.5
v 0.5 4 2.5
v 0.5 5 2.5
v 0.5 6 2.5
v 0.5 7 2.5
v -0.5 7 1.5
v -0.5 8 1.5
v 0.5 7 1.5
v 0.5 8 1.5
v -0.5 6 -0.5
v -0.5 7 -0.5
v 0.5 6 -0.5
v 0.5 7 -0.5
v -3.5 1 -1.5
v -3.5 2 -1.5
v -2.5 1 -1.5
v -2.5 2 -1.5
v -1.5 0 -1.5
v -1.5 1 -1.5
v -1.5 2 -1.5
v -0.5 2 -1.5
v -0.5 6 -1.5
v 0.5 2 -1.5
v 0.5 6 -1.5
v 1.5 0 -1.5
v 1.5 1 -1.5
v 1.5 2 -1.5
v 2.5 1 -1.5
v 2.5 2 -1.5
v 3.5 1 -1.5
v 3.5 2 -1.5
v -0.5 0 1.5
v -0.5 1 1.5
v -0.5 2 1.5
v -0.5 3 1.5
v -0.5 4 1.5
v -0.5 5 1.5
v -0.5 6 1.5
v -0.5 7 1.5
v 0.5 0 1.5
v 0.5 1 1.5
v 0.5 2 1.5
v 0.5 3 1.5
v 0.5 4 1.5
v 0.5 5 1.5
v 0.5 6 1.5
v 0.5 7 1.5
v -0.5 7 -0.5
v -0.5 8 -0.5
v 0.5 7 -0.5
v 0.5 8 -0.5
v -0.5 6 -1.5
v -0.5 7 -1.5
v 0.5 6 -1.5
v 0.5 7 -1.5
v -3.5 1 -2.5
v -3.5 2 -2.5
v -2.5 1 -2.5
v -2.5 2 -2.5
v -1.5 0 -2.5
v -1.5 1 -2.5
v -1.5 2 -2.5
v -0.5 2 -2.5
v -0.5 6 -2.5
v 0.5 2 -2.5
v 0.5 6 -2.5
v 1.5 0 -2.5
v 1.5 1 -2.5
v 1.5 2 -2.5
v 2.5 1 -2.5
v 2.5 2 -2.5
v 3.5 1 -2.5
v 3.5 2 -2.5
v -0.5 0 2.5
v 0.5 0 2.5
v -0.5 0 1.5
v 0.5 0 1.5
v -1.5 0 -1.5
v 1.5 0 -1.5
v -1.5 0 -2.5
v 1.5 0 -2.5
v -3.5 1 -1.5
v -2.5 1 -1.5
v -1.5 1 -1.5
v 1.5 1 -1.5
v 2.5 1 -1.5
v 3.5 1 -1.5
v -3.5 1 -2.5
v -2.5 1 -2.5
v -1.5 1 -2.5
v 1.5 1 -2.5
v 2.5 1 -2.5
v 3.5 1 -2.5
v -0.5 2 2.5
v 0.5 2 2.5
v -0.5 2 1.5
v 0.5 2 1.5
v -0.5 4 2.5
v 0.5 4 2.5
v -0.5 4 1.5
v 0.5 4 1.5
v -0.5 6 2.5
v 0.5 6 2.5
v -0.5 6 1.5
v 0.5 6 1.5
v -0.5 6 -0.5
v 0.5 6 -0.5
v -0.5 6 -1.5
v 0.5 6 -1.5
v -0.5 7 1.5
v 0.5 7 1.5
v -0.5 7 -0.5
v 0.5 7 -0.5
v -0.5 1 2.5
v 0.5 1 2.5
v -0.5 1 1.5
v 0.5 1 1.5
v -3.5 2 -1.5
v -2.5 2 -1.5
v -1.5 2 -1.5
v -0.5 2 -1.5
v 0.5 2 -1.5
v 1.5 2 -1.5
v 2.5 2 -1.5
v 3.5 2 -1.5
v -3.5 2 -2.5
v -2.5 2 -2.5
v -1.5 2 -2.5
v -0.5 2 -2.5
v 0.5 2 -2.5
v 1.5 2 -2.5
v 2.5 2 -2.5
v 3.5 2 -2.5
v -0.5 3 2.5
v 0.5 3 2.5
v -0.5 3 1.5
v 0.5 3 1.5
v -0.5 5 2.5
v 0.5 5 2.5
v -0.5 5 1.5
v 0.5 5 1.5
v -0.5 6 -1.5
v 0.5 6 -1.5
v -0.5 6 -2.5
v 0.5 6 -2.5
v -0.5 7 2.5
v 0.5 7 2.5
v -0.5 7 1.5
v 0.5 7 1.5
v -0.5 7 -0.5
v 0.5 7 -0.5
v -0.5 7 -1.5
v 0.5 7 -1.5
v -0.5 8 1.5
v 0.5 8 1.5
v -0.5 8 -0.5
v 0.5 8 -0.5

# faces
f 3/4/1 2/4/1 1/4/1
f 4/4/1 2/4/1 3/4/1
f 7/4/1 6/4/1 5/4/1
f 8/4/1 6/4/1 7/4/1
f 11/1/1 10/1/1 9/1/1
f 12/1/1 10/1/1 11/1/1
f 17/1/1 14/1/1 13/1/1
f 18/1/1 14/1/1 17/1/1
f 21/1/1 20/1/1 19/1/1
f 22/1/1 20/1/1 21/1/1
f 26/4/1 16/4/1 15/4/1
f 27/4/1 16/4/1 26/4/1
f 28/4/1 24/4/1 23/4/1
f 29/4/1 24/4/1 28/4/1
f 30/4/1 26/4/1 25/4/1
f 31/4/1 26/4/1 30/4/1
f 32/4/1 30/4/1 29/4/1
f 33/4/1 30/4/1 32/4/1
f 34/1/2 35/1/2 36/1/2
f 36/1/2 35/1/2 37/1/2
f 38/1/2 39/1/2 42/1/2
f 42/1/2 39/1/2 43/1/2
f 44/1/2 45/1/2 46/1/2
f 46/1/2 45/1/2 47/1/2
f 40/4/2 41/4/2 51/4/2
f 51/4/2 41/4/2 52/4/2
f 48/4/2 49/4/2 53/4/2
f 53/4/2 49/4/2 54/4/2
f 50/4/2 51/4/2 55/4/2
f 55/4/2 51/4/2 56/4/2
f 54/4/2 55/4/2 57/4/2
f 57/4/2 55/4/2 58/4/2
f 59/4/2 60/4/2 61/4/2
f 61/4/2 60/4/2 62/4/2
f 63/4/2 64/4/2 65/4/2
f 65/4/2 64/4/2 66/4/2
f 75/1/3 68/1/3 67/1/3
f 76/1/3 68/1/3 75/1/3
f 77/1/3 70/1/3 69/1/3
f 78/1/3 70/1/3 77/1/3
f 79/1/3 72/1/3 71/1/3
f 80/1/3 72/1/3 79/1/3
f 81/4/3 74/4/3 73/4/3
f 82/4/3 74/4/3 81/4/3
f 85/4/3 84/4/3 83/4/3
f 86/4/3 84/4/3 85/4/3
f 89/4/3 88/4/3 87/4/3
f 90/4/3 88/4/3 89/4/3
f 93/4/3 92/4/3 91/4/3
f 94/4/3 92/4/3 93/4/3
f 96/2/3 94/2/3 93/2/3
f 97/2/3 94/2/3 96/2/3
f 98/4/3 96/4/3 95/4/3
f 98/4/3 97/4/3 96/4/3
f 100/4/3 98/4/3 95/4/3
f 100/4/3 99/4/3 98/4/3
f 101/4/3 99/4/3 100/4/3
f 102/4/3 100/4/3 95/4/3
f 103/4/3 100/4/3 102/4/3
f 104/4/3 100/4/3 103/4/3
f 105/3/3 104/3/3 103/3/3
f 106/3/3 104/3/3 105/3/3
f 107/4/3 106/4/3 105/4/3
f 108/4/3 106/4/3 107/4/3
f 109/1/4 110/1/4 117/1/4
f 117/1/4 110/1/4 118/1/4
f 111/1/4 112/1/4 119/1/4
f 119/1/4 112/1/4 120/1/4
f 113/1/4 114/1/4 121/1/4
f 121/1/4 114/1/4 122/1/4
f 115/4/4 116/4/4 123/4/4
f 123/4/4 116/4/4 124/4/4
f 125/4/4 126/4/4 127/4/4
f 127/4/4 126/4/4 128/4/4
f 129/4/4 130/4/4 131/4/4
f 131/4/4 130/4/4 132/4/4
f 133/4/4 134/4/4 135/4/4
f 135/4/4 134/4/4 136/4/4
f 135/2/4 136/2/4 138/2/4
f 138/2/4 136/2/4 139/2/4
f 137/4/4 138/4/4 140/4/4
f 138/4/4 139/4/4 140/4/4
f 137/4/4 140/4/4 142/4/4
f 140/4/4 141/4/4 142/4/4
f 142/4/4 141/4/4 143/4/4
f 137/4/4 142/4/4 144/4/4
f 144/4/4 142/4/4 145/4/4
f 145/4/4 142/4/4 146/4/4
f 145/3/4 146/3/4 147/3/4
f 147/3/4 146/3/4 148/3/4
f 147/4/4 148/4/4 149/4/4
f 149/4/4 148/4/4 150/4/4
f 153/1/5 152/1/5 151/1/5
f 154/1/5 152/1/5 153/1/5
f 157/4/5 156/4/5 155/4/5
f 158/4/5 156/4/5 157/4/5
f 165/4/5 160/4/5 159/4/5
f 166/2/5 161/2/5 160/2/5
f 166/4/5 160/4/5 165/4/5
f 167/2/5 161/2/5 166/2/5
f 168/3/5 163/3/5 162/3/5
f 169/4/5 164/4/5 163/4/5
f 169/3/5 163/3/5 168/3/5
f 170/4/5 164/4/5 169/4/5
f 173/1/5 172/1/5 171/1/5
f 174/1/5 172/1/5 173/1/5
f 177/1/5 176/1/5 175/1/5
f 178/1/5 176/1/5 177/1/5
f 181/4/5 180/4/5 179/4/5
f 182/4/5 180/4/5 181/4/5
f 185/4/5 184/4/5 183/4/5
f 186/4/5 184/4/5 185/4/5
f 189/4/5 188/4/5 187/4/5
f 190/4/5 188/4/5 189/4/5
f 191/1/6 192/1/6 193/1/6
f 193/1/6 192/1/6 194/1/6
f 195/4/6 196/4/6 203/4/6
f 196/2/6 197/2/6 204/2/6
f 203/4/6 196/4/6 204/4/6
f 197/4/6 198/4/6 205/4/6
f 204/2/6 197/2/6 205/2/6
f 205/4/6 198/4/6 206/4/6
f 199/4/6 200/4/6 207/4/6
f 200/3/6 201/3/6 208/3/6
f 207/4/6 200/4/6 208/4/6
f 201/4/6 202/4/6 209/4/6
f 208/3/6 201/3/6 209/3/6
f 209/4/6 202/4/6 210/4/6
f 211/1/6 212/1/6 213/1/6
f 213/1/6 212/1/6 214/1/6
f 215/1/6 216/1/6 217/1/6
f 217/1/6 216/1/6 218/1/6
f 219/4/6 220/4/6 221/4/6
f 221/4/6 220/4/6 222/4/6
f 223/4/6 224/4/6 225/4/6
f 225/4/6 224/4/6 226/4/6
f 227/4/6 228/4/6 229/4/6
f 229/4/6 228/4/6 230/4/6
f 231/4/6 232/4/6 233/4/6
f 233/4/6 232/4/6 234/4/6
